<svg width="48" height="48" viewBox="0 0 192 192" xmlns="http://www.w3.org/2000/svg" xmlns:xlink="http://www.w3.org/1999/xlink"><path fill="#0104ff" d="M30.71 8h28.387v45.419H30.71z"/><path fill="#ffff01" d="M30.71 53.419h28.387v68.129H30.71z"/><path fill="#f0f" d="M30.71 121.548h28.387v45.419H30.71z"/><path fill="#00fe02" d="M59.097 8h51.097v158.968H59.097z"/><path fill="#fd0100" d="M110.194 8h51.097v158.968h-51.097z"/><path d="M161.29 8L42.065 25.032V184l119.226-17.032V8z"/><defs><path id="a" d="M59.097 64.774h90.839v73.806H59.097z"/></defs><clipPath id="b"><use xlink:href="#a" overflow="visible"/></clipPath><g clip-path="url(#b)" fill="#fff"><path d="M56.258 76.312l40.292-6.503.096 11.076-27.965 4.514.119 13.605 26.307-4.246.097 11.16-26.308 4.247.133 15.351 29.701-4.794-1.146 11.276-40.787 6.584-.539-62.27zm46.657-7.531l21.097-3.405c4.521-.73 8.262-.797 11.224-.198 2.958.602 5.317 1.647 7.07 3.141 1.753 1.494 2.982 3.36 3.693 5.605.71 2.241 1.075 4.641 1.097 7.2a31.109 31.109 0 01-.965 8.017c-.668 2.613-1.862 5.002-3.582 7.174-1.721 2.168-4.024 4.039-6.909 5.61-2.889 1.575-6.536 2.715-10.95 3.427l-9.264 1.495.193 22.239-12.163 1.963-.539-62.268h-.002zm21.266 25.825c2.151-.347 3.929-.869 5.333-1.561 1.399-.692 2.512-1.51 3.333-2.46a7.625 7.625 0 001.671-3.28c.29-1.241.433-2.561.421-3.955-.012-1.451-.188-2.705-.531-3.756-.34-1.05-.927-1.89-1.761-2.512-.834-.622-1.954-1.024-3.364-1.201-1.411-.181-3.19-.097-5.341.251l-8.769 1.415.16 18.489 8.85-1.428h-.002z"/></g></svg>