<svg width="48" height="48" viewBox="0 0 192 192" xmlns="http://www.w3.org/2000/svg"><path fill="#FFF" d="M180 88.436c0-41.733-37.416-75.564-83.571-75.564S12.858 46.703 12.858 88.436c0 11.35 2.786 22.106 7.744 31.765a23.642 23.642 0 00-2.213 5.878c-4.664 20.448 18.878 43.257 52.583 50.945 33.705 7.688 64.809-2.655 69.473-23.103.107-.467.182-.937.26-1.406C164.299 139.158 180 115.461 180 88.436z"/><path d="M184 89.772c.06 21.451-8.245 39.265-23.71 53.834-3.543 3.338-7.667 6.058-11.492 9.102a8.099 8.099 0 00-1.759 1.922c-5.078 7.942-11.179 14.834-19.62 19.369-6.655 3.576-13.824 5.657-21.151 7.254-6.427 1.401-12.9 2.34-19.521 1.896-16.297-1.094-31.812-4.763-45.86-13.508-9.014-5.611-16.702-12.505-21.717-22.028-3.248-6.168-5.353-12.677-4.912-19.736.177-2.838.91-5.639 1.359-8.462.065-.406.107-.93-.089-1.246-2.988-4.823-3.704-10.406-5.257-15.7-4.002-13.647-2.37-27.054 2.209-40.204 6.724-19.307 19.904-33.015 37.696-42.558 6.181-3.316 12.599-6.208 19.457-7.697 6.867-1.491 13.766-3.154 20.843-3.248 5.497-.073 11.021.02 16.494.495 10.901.946 21.447 3.517 31.417 8.114 20.076 9.256 34.059 24.201 41.413 45.105 3.094 8.795 4.155 17.984 4.2 27.296zM22.358 107.411c1.278-1.041 2.368-2.081 3.6-2.908 11.339-7.611 23.751-10.403 37.094-7.312 5.66 1.311 11.115 3.615 16.555 5.746 9.967 3.904 20.158 6.044 30.945 5.484 4.762-.247 9.651-.052 14.342.755 11.967 2.059 20.216 8.849 23.992 20.575.829 2.574 1.153 5.312 1.728 8.065 2.201-.821 3.924-2.443 5.421-4.296 5.362-6.638 10.053-13.69 13.227-21.67 4.795-12.057 6.845-24.505 3.907-37.257-4.97-21.577-17.588-37.285-37.582-46.923-9.214-4.442-19.036-6.808-29.161-7.916-8.952-.979-17.871-1.322-26.798.709-7.952 1.809-15.791 3.712-23.182 7.361-27.634 13.643-41.147 42.538-37.202 70.724.435 3.103 1.298 6.098 3.114 8.863zm63.71 65.673c13.458-.002 24.847-2.336 34.351-6.88 8.825-4.22 16.216-9.784 19.131-19.865 1.045-3.612 1.451-7.076.479-10.624-2.321-8.471-7.23-14.546-16.346-15.901-4.372-.65-8.869-.688-13.305-.634-9.356.114-18.415-1.25-27.163-4.618-4.063-1.564-8.129-3.128-12.245-4.543-7.703-2.648-15.482-4.579-23.794-3.36-5.322.78-10.321 2.201-14.777 5.234-4.957 3.374-7.478 8.176-7.912 14.102-.384 5.25 1.073 10.101 3.32 14.767 3.496 7.258 8.95 12.713 15.428 17.389 13.354 9.64 28.018 15.159 42.833 14.933z"/><path d="M143.538 69.105c-.107 13.274-13.326 18.953-22.291 14.375-9.535-4.868-11.759-18.646-4.101-25.678 2.448-2.248 5.449-3.576 8.519-4.625 1.198-.409 2.701-.058 4.045.11 8.216 1.031 13.882 7.537 13.828 15.818zm-16.397-9.462c-1.134-.275-2.111-.858-2.657-.583-2.06 1.038-4.085 2.215-5.914 3.614-1.243.951-1.632 2.515-1.037 4.078.271.711.399 1.735 1.589 1.586 1.131-.141 2.032-.534 2.15-1.872.044-.504.213-.997.266-1.231 1.041-.308 2.166-.295 2.607-.838 1.111-1.365 1.913-2.981 2.996-4.754zm-78.329 8.29c.107-4.775 2.478-9.397 7.777-12.299 1.541-.844 3.07-1.859 4.736-2.279 1.51-.381 3.218-.224 4.803-.02 7.286.942 12.497 6.22 13.571 13.609.996 6.854-2.726 13.789-8.927 16.631-10.591 4.853-22.031-2.699-21.96-15.642zM63.4 60.155c-.413-.298-.798-.624-1.227-.877-1.403-.827-2.506.104-3.656.676-2.53 1.258-4.437 3.063-4.794 6.013-.08.66.122 1.691.568 1.986.473.312 1.394-.027 2.113-.131.196-.028.373-.223.548-.356 2.585-1.97 4.7-4.357 6.448-7.311zm33.816 27.364c-3.166-.027-6.255-.533-9.069-2.01-1.294-.679-2.459-1.679-3.522-2.7-.939-.902-1.097-2.176-.874-3.455.331-1.899.914-2.234 2.833-2.165 1.473.053 2.575.592 3.548 1.65 3.306 3.596 6.876 3.185 10.248 1.177 1.397-.832 2.744-1.757 4.06-2.713 1.252-.909 2.338-.196 3.47.211 1.026.37.782 1.289.785 2.028.012 3.05-1.519 5.164-4.169 6.513-2.293 1.166-4.774 1.477-7.31 1.464zm13.875 35.85c5.718.144 10.004 4.543 9.834 10.095-.164 5.369-4.246 9.274-9.588 9.169-5.236-.103-9.674-4.628-9.526-9.714.138-4.7 4.956-9.659 9.28-9.55zm-4.872 7.477c.011 1.385.607 2.04 1.821 1.999.881-.03 1.565-.986 1.575-2.202.008-.929-1.002-1.799-2.093-1.689-1.109.112-1.336.938-1.303 1.892zm-50.032-7.477c5.913.136 10.196 4.361 10.084 9.947-.109 5.434-4.403 9.495-9.865 9.33-5.196-.157-9.221-4.766-9.163-10.306.055-5.183 4.882-8.398 8.944-8.971zm-1.288 7.699c-.012-1.209-.899-2.133-2.019-2.103-.766.021-2.107 1.475-1.802 2.249.259.657 1.012 1.32 1.694 1.558.811.284 2.134-.943 2.127-1.704zm29.169 16.026c-3.165-.117-6.059-.742-8.585-2.554-2.211-1.587-3.111-3.704-2.559-5.903.339-1.348 1.17-2.06 2.551-2.02 1.416.041 2.648.261 3.512 1.767 1.317 2.295 3.55 3.126 6.023 2.123 2-.811 3.823-2.105 5.635-3.317 1.146-.767 2.463-1.044 3.325-.373 1.565 1.218 1.972 2.669 1.095 4.148-1.954 3.298-4.804 5.322-8.619 5.907-.825.127-1.665.158-2.378.222z"/></svg>